<svg width="6" height="14" viewBox="0 0 6 14" fill="none" xmlns="http://www.w3.org/2000/svg">
<path d="M2.197 13.4221C1.755 12.9195 1.36933 12.4081 1.04 11.8881C0.710667 11.3768 0.455 10.8178 0.273 10.2111C0.0910001 9.60446 0 8.91979 0 8.15713C0 7.42913 0.138667 6.71413 0.416 6.01213C0.702 5.30146 1.10067 4.61679 1.612 3.95813C2.12333 3.29946 2.72133 2.68413 3.406 2.11213C4.09067 1.54013 4.83167 1.02879 5.629 0.578125L5.759 0.747125C4.80567 1.38846 3.96933 2.08612 3.25 2.84013C2.53933 3.58546 1.98467 4.40879 1.586 5.31013C1.196 6.21146 1.001 7.20812 1.001 8.30013C1.001 8.92413 1.04867 9.52646 1.144 10.1071C1.248 10.6878 1.404 11.2381 1.612 11.7581C1.82867 12.2868 2.10167 12.7851 2.431 13.2531L2.197 13.4221Z" fill="#FFF4E0"/>
</svg>
