<svg width="6" height="14" viewBox="0 0 6 14" fill="none" xmlns="http://www.w3.org/2000/svg">
<path d="M3.562 0.578125C4.004 1.07213 4.38967 1.57913 4.719 2.09913C5.04833 2.61913 5.304 3.18246 5.486 3.78913C5.668 4.39579 5.759 5.08046 5.759 5.84313C5.759 6.57113 5.616 7.29046 5.33 8.00113C5.05267 8.70313 4.65833 9.38346 4.147 10.0421C3.63567 10.7008 3.03767 11.3161 2.353 11.8881C1.66833 12.4601 0.927333 12.9715 0.13 13.4221L0 13.2531C0.953333 12.6118 1.78533 11.9141 2.496 11.1601C3.21533 10.4148 3.77 9.59146 4.16 8.69013C4.55867 7.78879 4.758 6.79213 4.758 5.70013C4.758 5.07613 4.706 4.47379 4.602 3.89313C4.50667 3.31246 4.35067 2.75779 4.134 2.22913C3.926 1.70046 3.65733 1.20646 3.328 0.747125L3.562 0.578125Z" fill="#FFF4E0"/>
</svg>
