<svg width="169" height="77" viewBox="0 0 169 77" fill="none" xmlns="http://www.w3.org/2000/svg">
<path d="M160.434 40.9503C159.178 43.0152 156.92 44.2471 154.566 44.1533C153.544 44.1151 152.579 43.8335 151.722 43.3613C153.47 42.2438 155.668 40.8388 156.841 40.0938C160.727 37.6241 162.692 33.8697 161.843 30.5319C161.128 27.7249 158.674 25.965 155.275 25.8213C155.121 25.8154 154.967 25.8125 154.814 25.8125C148.706 25.8125 143.69 30.9278 143.63 37.2194C143.613 39.0672 144.034 40.8271 144.789 42.3934C143.3 43.2909 141.907 44.0007 140.265 44.1562C139.231 44.253 138.474 43.772 138.021 43.3466C137.258 42.6339 136.803 41.5662 136.797 40.4986L136.811 34.2217C136.803 31.9632 135.94 29.8455 134.383 28.2558C132.834 26.6748 130.781 25.8037 128.597 25.8037C128.586 25.8037 128.574 25.8037 128.563 25.8037C126.368 25.8125 124.309 26.7012 122.763 28.3027C121.363 29.7546 120.54 31.6376 120.403 33.6586L113.032 38.202C113.055 37.9116 113.069 37.6183 113.069 37.322C113.069 30.9689 108.052 25.8007 101.885 25.8007C95.8751 25.8007 90.9609 30.7108 90.7132 36.8381C89.2953 38.507 87.8234 40.0792 86.2347 41.3668C83.9598 43.2176 81.5682 44.2852 78.8777 44.2354C76.953 44.2442 74.681 43.9333 73.2318 42.6867C72.4318 42.0326 71.7769 41.0207 71.1819 39.865C70.268 38.0729 69.5049 35.8877 68.5739 33.9724C67.5376 31.7814 66.0827 29.517 63.8107 28.4933C57.715 25.7626 53.1311 32.8226 47.5365 33.6204C43.243 34.0751 41.8137 29.869 41.2301 26.1908C40.7062 23.3047 40.7973 20.1809 39.8862 17.3416C39.1801 15.0039 38.0384 12.5548 36.0711 10.9298C33.8646 9.01157 30.5932 8.96758 28.213 10.4928C26.8151 11.3375 25.7132 12.4404 24.6228 13.5667C23.5779 14.6168 22.5899 15.7255 21.6247 16.8518C14.0713 25.8095 8.95785 36.9994 7.21825 48.7201C7.21256 48.7553 7.20117 48.8257 7.20117 48.8257L9.30805 48.8286C9.30805 48.8286 9.32798 48.7319 9.33937 48.682C10.5266 43.2997 12.3118 38.0758 14.7091 33.1717C17.2231 28.0827 20.3407 23.2988 24.0476 19.0575C24.9872 18.0133 25.9268 16.9662 26.9232 15.9836C28.3297 14.5845 29.5511 13.2793 31.305 12.9068C34.2261 12.4287 35.8803 15.7988 36.6547 18.3565C37.5231 21.1195 37.3381 23.9763 37.9473 26.8273C38.8812 32.0248 42.0757 36.9818 47.8867 35.6619C52.1744 34.5737 55.1184 30.7196 59.3521 29.7986C61.9373 29.2648 64.0384 30.7988 64.9979 33.2831C66.6493 37.4247 67.0108 42.6134 70.4957 45.8721C72.8873 48.1599 76.2355 48.814 79.3702 48.8433C84.3043 48.9489 88.5323 46.092 91.9204 42.5606C93.7767 46.2856 97.5406 48.8404 101.874 48.8404C104.656 48.8404 107.204 47.7845 109.163 46.0451L120.375 39.1347V65.1192H124.93V34.3977V34.2687C124.927 33.2626 125.303 32.3152 125.992 31.6024C126.681 30.8897 127.598 30.4937 128.574 30.4908C128.58 30.4908 128.583 30.4908 128.589 30.4908C130.599 30.4908 132.239 32.1715 132.247 34.2247L132.233 40.5015C132.241 42.9096 133.232 45.2121 134.949 46.8165C136.546 48.3095 138.582 49.0222 140.675 48.8228C143.471 48.5559 145.595 47.3562 147.607 46.1155C149.458 47.7346 151.816 48.7524 154.389 48.8462C154.523 48.8521 154.657 48.855 154.791 48.855C158.626 48.855 162.236 46.8107 164.28 43.4493L160.434 40.9503ZM95.354 38.4718C95.3626 38.463 95.3683 38.4513 95.3768 38.4425L95.3455 38.4161C95.2886 38.0582 95.2601 37.6945 95.2601 37.322C95.2601 33.5559 98.2325 30.4937 101.888 30.4937C105.544 30.4937 108.516 33.5559 108.516 37.322C108.516 41.0881 105.544 44.1503 101.888 44.1503C98.6111 44.1503 95.8865 41.6924 95.354 38.4718ZM154.814 30.5025C154.905 30.5025 154.996 30.5055 155.09 30.5084C155.71 30.5348 157.179 30.7049 157.439 31.7168C157.709 32.7786 156.769 34.6236 154.452 36.096C153.119 36.9437 150.466 38.639 148.647 39.8034C148.342 39.0115 148.18 38.1521 148.188 37.2604C148.222 33.5354 151.195 30.5025 154.814 30.5025Z" fill="#FFF4E0"/>
</svg>
