<svg width="40" height="40" viewBox="0 0 40 40" fill="none" xmlns="http://www.w3.org/2000/svg">
    <rect width="40" height="40" rx="20" fill="#343333" />
    <path
        d="M32.9866 24.3445C33.5492 23.8874 34.0704 23.3292 34.5725 22.7367L35 24.7684C33.8002 26.0222 32.3031 27.0365 30.5559 26.999C29.4458 26.9886 28.2602 26.7564 27.4133 25.9441C26.1793 24.7871 26.0512 22.945 25.4665 21.4745C25.1267 20.5925 24.3826 20.0479 23.4672 20.2374C21.968 20.5644 20.9255 21.9327 19.4072 22.3191C17.3494 22.7877 16.2182 21.0278 15.8876 19.1825C15.6718 18.1703 15.7373 17.156 15.4298 16.175C15.1556 15.267 14.5698 14.0704 13.5354 14.2402C12.9144 14.3724 12.4819 14.8358 11.9838 15.3326C11.6388 15.6736 11.3132 16.0365 10.9879 16.399L10.9655 16.4239C9.65284 17.9297 8.54886 19.6282 7.65862 21.435C6.80972 23.1761 6.17758 25.0308 5.75716 26.9417C5.75313 26.9594 5.74607 26.9938 5.74607 26.9938L5 26.9927L5.00605 26.9553C5.62206 22.794 7.43279 18.8211 10.1075 15.6408C10.4493 15.2409 10.7992 14.8473 11.1692 14.4745C11.5553 14.0746 11.9455 13.683 12.4405 13.3831C13.2834 12.8416 14.4418 12.8572 15.2231 13.5383C15.9198 14.1152 16.3241 14.9847 16.5741 15.8147C16.8968 16.8228 16.8645 17.9318 17.05 18.9565C17.2567 20.2624 17.7628 21.7557 19.2832 21.5943C21.2643 21.311 22.8875 18.8045 25.046 19.774C25.8506 20.1374 26.3658 20.9414 26.7328 21.7193C27.0624 22.3993 27.3326 23.1751 27.6563 23.8114C27.867 24.2217 28.0989 24.5809 28.3822 24.8132C28.8953 25.2557 29.6999 25.3661 30.3814 25.363C31.3342 25.3807 32.1811 25.0017 32.9866 24.3445Z"
        fill="#8DB2C3" />
</svg>