<svg width="107" height="109" viewBox="0 0 107 109" fill="none" xmlns="http://www.w3.org/2000/svg">
<path d="M53.5 0C23.968 0 0 24.416 0 54.5C0 84.584 23.968 109 53.5 109C83.032 109 107 84.584 107 54.5C107 24.416 83.032 0 53.5 0ZM78.324 37.06C77.5215 45.671 74.044 66.599 72.2785 76.2455C71.5295 80.333 70.0315 81.6955 68.6405 81.859C65.5375 82.1315 63.1835 79.788 60.1875 77.7715C55.4795 74.6105 52.8045 72.6485 48.257 69.5965C42.9605 66.054 46.3845 64.092 49.434 60.931C50.2365 60.1135 63.9325 47.415 64.2 46.2705C64.2372 46.0972 64.2322 45.9172 64.1856 45.7462C64.139 45.5753 64.0521 45.4185 63.9325 45.2895C63.6115 45.017 63.1835 45.126 62.809 45.1805C62.3275 45.2895 54.8375 50.358 40.232 60.386C38.092 61.8575 36.166 62.6205 34.454 62.566C32.528 62.5115 28.89 61.476 26.1615 60.5495C22.791 59.4595 20.1695 58.86 20.3835 56.9525C20.4905 55.9715 21.828 54.9905 24.3425 53.955C39.9645 47.0335 50.3435 42.4555 55.533 40.2755C70.406 33.9535 73.4555 32.8635 75.4885 32.8635C75.9165 32.8635 76.933 32.9725 77.575 33.5175C78.11 33.9535 78.2705 34.553 78.324 34.989C78.2705 35.316 78.3775 36.297 78.324 37.06Z" fill="#FFF4E0"/>
</svg>
