<svg width="107" height="110" viewBox="0 0 107 110" fill="none" xmlns="http://www.w3.org/2000/svg">
<ellipse cx="53.5" cy="54.5559" rx="53.5" ry="54.5559" fill="#FFF4E0"/>
<path d="M43.7431 31.585H63.2565C70.6902 31.585 76.7301 37.7441 76.7301 45.3245V65.223C76.7301 68.867 75.3105 72.3617 72.7837 74.9383C70.257 77.515 66.8299 78.9625 63.2565 78.9625H43.7431C36.3094 78.9625 30.2695 72.8034 30.2695 65.223V45.3245C30.2695 41.6805 31.6891 38.1858 34.2158 35.6092C36.7426 33.0325 40.1697 31.585 43.7431 31.585ZM43.2785 36.3227C41.0605 36.3227 38.9334 37.2212 37.365 38.8205C35.7967 40.4198 34.9156 42.5889 34.9156 44.8507V65.6968C34.9156 70.4109 38.6557 74.2248 43.2785 74.2248H63.7211C65.9391 74.2248 68.0662 73.3263 69.6346 71.727C71.2029 70.1277 72.084 67.9586 72.084 65.6968V44.8507C72.084 40.1366 68.3439 36.3227 63.7211 36.3227H43.2785ZM65.6957 39.8761C66.4658 39.8761 67.2044 40.188 67.749 40.7433C68.2935 41.2987 68.5995 42.0518 68.5995 42.8372C68.5995 43.6225 68.2935 44.3756 67.749 44.931C67.2044 45.4863 66.4658 45.7982 65.6957 45.7982C64.9255 45.7982 64.187 45.4863 63.6424 44.931C63.0978 44.3756 62.7919 43.6225 62.7919 42.8372C62.7919 42.0518 63.0978 41.2987 63.6424 40.7433C64.187 40.188 64.9255 39.8761 65.6957 39.8761ZM53.4998 43.4294C56.5803 43.4294 59.5347 44.6773 61.7129 46.8985C63.8912 49.1198 65.1149 52.1324 65.1149 55.2737C65.1149 58.4151 63.8912 61.4277 61.7129 63.649C59.5347 65.8702 56.5803 67.1181 53.4998 67.1181C50.4193 67.1181 47.4649 65.8702 45.2867 63.649C43.1084 61.4277 41.8847 58.4151 41.8847 55.2737C41.8847 52.1324 43.1084 49.1198 45.2867 46.8985C47.4649 44.6773 50.4193 43.4294 53.4998 43.4294ZM53.4998 48.1671C51.6515 48.1671 49.8789 48.9159 48.5719 50.2486C47.265 51.5814 46.5307 53.389 46.5307 55.2737C46.5307 57.1585 47.265 58.9661 48.5719 60.2989C49.8789 61.6316 51.6515 62.3804 53.4998 62.3804C55.3481 62.3804 57.1207 61.6316 58.4277 60.2989C59.7346 58.9661 60.4689 57.1585 60.4689 55.2737C60.4689 53.389 59.7346 51.5814 58.4277 50.2486C57.1207 48.9159 55.3481 48.1671 53.4998 48.1671Z" fill="#343333"/>
</svg>
