<svg width="108" height="106" viewBox="0 0 108 106" fill="none" xmlns="http://www.w3.org/2000/svg">
<path d="M53.8409 0C25.2991 0 2.16211 23.7285 2.16211 53C2.16211 82.2715 25.2991 106 53.8409 106C82.3827 106 105.52 82.2715 105.52 53C105.52 23.7285 82.3827 0 53.8409 0ZM73.7157 59.7961C73.7157 59.7961 78.2861 64.4226 79.4112 66.5702C79.4435 66.6144 79.4596 66.6585 79.4704 66.6806C79.928 67.4701 80.0356 68.0829 79.8095 68.5411C79.4327 69.303 78.1407 69.6784 77.6993 69.7116H69.6245C69.0647 69.7116 67.8911 69.5625 66.4699 68.5577C65.3771 67.7738 64.3005 66.4874 63.2508 65.2342C61.6843 63.3681 60.3277 61.756 58.9604 61.756C58.7867 61.7557 58.6141 61.7837 58.449 61.8389C57.4154 62.1811 56.0911 63.6939 56.0911 67.7241C56.0911 68.9828 55.1221 69.706 54.4385 69.706H50.7402C49.4805 69.706 42.9184 69.2533 37.1045 62.9651C29.9879 55.2635 23.5819 39.8162 23.5281 39.6727C23.1243 38.6734 23.9587 38.1379 24.8685 38.1379H33.0241C34.1115 38.1379 34.4668 38.817 34.7144 39.4187C35.0051 40.1199 36.0709 42.9079 37.8205 46.0437C40.6574 51.156 42.3962 53.2319 43.7905 53.2319C44.0519 53.2287 44.3087 53.1605 44.5387 53.0331C46.3583 51.9952 46.0191 45.3426 45.9384 43.9624C45.9384 43.7029 45.933 40.9867 45.0017 39.6837C44.3342 38.7397 43.1983 38.3808 42.5093 38.2483C42.7882 37.8537 43.1556 37.5336 43.5805 37.3153C44.8294 36.6749 47.0796 36.581 49.3137 36.581H50.5572C52.9796 36.6142 53.6041 36.7743 54.4815 37.0006C56.258 37.4368 56.2957 38.6127 56.1396 42.6374C56.0911 43.7802 56.0427 45.0721 56.0427 46.5958C56.0427 46.9271 56.0265 47.2804 56.0265 47.6558C55.9727 49.7041 55.9081 52.0283 57.3185 52.9834C57.5024 53.1017 57.715 53.1648 57.9322 53.1656C58.422 53.1656 59.897 53.1656 63.8914 46.1376C65.1233 43.8755 66.1937 41.5248 67.0944 39.1041C67.1751 38.9605 67.412 38.5189 67.6919 38.3477C67.8985 38.2397 68.1276 38.1848 68.3594 38.1876H77.9469C78.9913 38.1876 79.7073 38.3477 79.8418 38.7618C80.0787 39.4187 79.7988 41.4228 75.4222 47.5012L73.4681 50.1457C69.5007 55.4789 69.5007 55.7494 73.7157 59.7961Z" fill="#FFF4E0"/>
</svg>
